<svg width="21" height="22" viewBox="0 0 21 22" fill="none" xmlns="http://www.w3.org/2000/svg">
<path d="M21 1.67197C21 1.34384 20.8594 1.06259 20.625 0.828217C20.3906 0.640717 20.1094 0.500092 19.8281 0.500092H1.17188C0.796875 0.500092 0.515625 0.640717 0.328125 0.828217C0.09375 1.06259 0 1.34384 0 1.67197V20.3282C0 20.6563 0.09375 20.9376 0.328125 21.172C0.515625 21.4063 0.796875 21.5001 1.17188 21.5001H11.2031V13.3438H8.48438V10.2032H11.2031V7.85947C11.2031 6.54697 11.5781 5.51572 12.3281 4.76572C13.0781 4.06259 14.0625 3.68759 15.2812 3.68759C16.2188 3.68759 17.0625 3.73447 17.7188 3.78134V6.64072H16.0312C15.4219 6.64072 15 6.78134 14.7656 7.06259C14.5781 7.29697 14.4844 7.67197 14.4844 8.18759V10.2032H17.625L17.2031 13.3438H14.4844V21.5001H19.8281C20.1562 21.5001 20.4375 21.4063 20.6719 21.172C20.8594 20.9376 21 20.6563 21 20.3282V1.67197Z" fill="#FFCB47"/>
</svg>
