<svg width="21" height="22" viewBox="0 0 21 22" fill="none" xmlns="http://www.w3.org/2000/svg">
<path d="M10.5 5.60947C11.4375 5.60947 12.3281 5.89072 13.1719 6.35947C14.0156 6.82822 14.6719 7.48447 15.1406 8.32822C15.6094 9.17197 15.8906 10.0626 15.8906 11.0001C15.8906 11.9845 15.6094 12.8751 15.1406 13.7188C14.6719 14.5626 14.0156 15.2188 13.1719 15.6876C12.3281 16.1563 11.4375 16.3907 10.5 16.3907C9.51562 16.3907 8.625 16.1563 7.78125 15.6876C6.9375 15.2188 6.28125 14.5626 5.8125 13.7188C5.34375 12.8751 5.10938 11.9845 5.10938 11.0001C5.10938 10.0626 5.34375 9.17197 5.8125 8.32822C6.28125 7.48447 6.9375 6.82822 7.78125 6.35947C8.625 5.89072 9.51562 5.60947 10.5 5.60947ZM10.5 14.5157C11.4375 14.5157 12.2812 14.1876 12.9844 13.4845C13.6406 12.8282 14.0156 11.9845 14.0156 11.0001C14.0156 10.0626 13.6406 9.21884 12.9844 8.51572C12.2812 7.85947 11.4375 7.48447 10.5 7.48447C9.51562 7.48447 8.67188 7.85947 8.01562 8.51572C7.3125 9.21884 6.98438 10.0626 6.98438 11.0001C6.98438 11.9845 7.3125 12.8282 8.01562 13.4845C8.67188 14.1876 9.51562 14.5157 10.5 14.5157ZM17.3906 5.37509C17.3906 5.04697 17.25 4.76572 17.0156 4.48447C16.7344 4.25009 16.4531 4.10947 16.125 4.10947C15.75 4.10947 15.4688 4.25009 15.2344 4.48447C14.9531 4.76572 14.8594 5.04697 14.8594 5.37509C14.8594 5.75009 14.9531 6.03134 15.2344 6.26572C15.4688 6.54697 15.75 6.64072 16.125 6.64072C16.4531 6.64072 16.7344 6.54697 16.9688 6.26572C17.2031 6.03134 17.3438 5.75009 17.3906 5.37509ZM20.9531 6.64072C20.9531 7.53134 21 8.98447 21 11.0001C21 13.0626 20.9531 14.5157 20.9062 15.4063C20.8594 16.297 20.7188 17.047 20.5312 17.7032C20.25 18.5001 19.7812 19.2032 19.2188 19.7657C18.6562 20.3282 17.9531 20.7501 17.2031 21.0313C16.5469 21.2657 15.75 21.4063 14.8594 21.4532C13.9688 21.5001 12.5156 21.5001 10.5 21.5001C8.4375 21.5001 6.98438 21.5001 6.09375 21.4532C5.20312 21.4063 4.45312 21.2657 3.79688 20.9845C3 20.7501 2.29688 20.3282 1.73438 19.7657C1.17188 19.2032 0.75 18.5001 0.46875 17.7032C0.234375 17.047 0.09375 16.297 0.046875 15.4063C0 14.5157 0 13.0626 0 11.0001C0 8.98447 0 7.53134 0.046875 6.64072C0.09375 5.75009 0.234375 4.95322 0.46875 4.29697C0.75 3.54697 1.17188 2.84384 1.73438 2.28134C2.29688 1.71884 3 1.25009 3.79688 0.968842C4.45312 0.781342 5.20312 0.640717 6.09375 0.593842C6.98438 0.546967 8.4375 0.500092 10.5 0.500092C12.5156 0.500092 13.9688 0.546967 14.8594 0.593842C15.75 0.640717 16.5469 0.781342 17.2031 0.968842C17.9531 1.25009 18.6562 1.71884 19.2188 2.28134C19.7812 2.84384 20.25 3.54697 20.5312 4.29697C20.7188 4.95322 20.8594 5.75009 20.9531 6.64072ZM18.7031 17.1876C18.8906 16.672 18.9844 15.8282 19.0781 14.6563C19.0781 14.0001 19.125 13.0157 19.125 11.7501V10.2501C19.125 8.98447 19.0781 8.00009 19.0781 7.34384C18.9844 6.17197 18.8906 5.32822 18.7031 4.81259C18.3281 3.87509 17.625 3.17197 16.6875 2.79697C16.1719 2.60947 15.3281 2.51572 14.1562 2.42197C13.4531 2.42197 12.4688 2.37509 11.25 2.37509H9.75C8.48438 2.37509 7.5 2.42197 6.84375 2.42197C5.67188 2.51572 4.82812 2.60947 4.3125 2.79697C3.32812 3.17197 2.67188 3.87509 2.29688 4.81259C2.10938 5.32822 1.96875 6.17197 1.92188 7.34384C1.875 8.04697 1.875 9.03134 1.875 10.2501V11.7501C1.875 13.0157 1.875 14.0001 1.92188 14.6563C1.96875 15.8282 2.10938 16.672 2.29688 17.1876C2.67188 18.172 3.375 18.8282 4.3125 19.2032C4.82812 19.3907 5.67188 19.5313 6.84375 19.5782C7.5 19.6251 8.48438 19.6251 9.75 19.6251H11.25C12.5156 19.6251 13.5 19.6251 14.1562 19.5782C15.3281 19.5313 16.1719 19.3907 16.6875 19.2032C17.625 18.8282 18.3281 18.1251 18.7031 17.1876Z" fill="#FFCB47"/>
</svg>
