<svg width="24" height="20" viewBox="0 0 24 20" fill="none" xmlns="http://www.w3.org/2000/svg">
<path d="M21.5156 5.12509C22.4531 4.42197 23.2969 3.57822 24 2.54697C23.0625 2.96884 22.125 3.25009 21.1875 3.34384C22.2188 2.68759 22.9688 1.79697 23.3438 0.625092C22.3594 1.18759 21.3281 1.60947 20.2031 1.79697C19.7344 1.32822 19.1719 0.953217 18.5625 0.671967C17.9531 0.390717 17.2969 0.250092 16.5938 0.250092C15.7031 0.250092 14.9062 0.484467 14.1562 0.906342C13.4062 1.37509 12.7969 1.98447 12.375 2.73447C11.9062 3.48447 11.7188 4.32822 11.7188 5.17197C11.7188 5.54697 11.7188 5.92197 11.8125 6.29697C9.79688 6.20322 7.92188 5.73447 6.14062 4.79697C4.35938 3.90634 2.90625 2.68759 1.6875 1.14072C1.21875 1.93759 0.984375 2.78134 0.984375 3.62509C0.984375 4.46884 1.17188 5.26572 1.59375 5.96884C1.96875 6.71884 2.53125 7.28134 3.1875 7.75009C2.39062 7.75009 1.64062 7.51572 0.984375 7.09384V7.18759C0.984375 8.35947 1.35938 9.39072 2.10938 10.2813C2.85938 11.2188 3.79688 11.7813 4.92188 12.0157C4.45312 12.1095 4.03125 12.1563 3.60938 12.1563C3.32812 12.1563 3 12.1563 2.71875 12.1095C3 13.0938 3.5625 13.8907 4.40625 14.547C5.25 15.2032 6.1875 15.4845 7.3125 15.4845C5.48438 16.8907 3.42188 17.5938 1.17188 17.5938C0.703125 17.5938 0.328125 17.5938 0 17.547C2.25 19.047 4.78125 19.7501 7.54688 19.7501C10.4062 19.7501 12.9375 19.047 15.1875 17.547C17.2031 16.2345 18.7969 14.5001 19.9219 12.2501C21 10.1876 21.5625 7.98447 21.5625 5.73447C21.5625 5.45322 21.5156 5.26572 21.5156 5.12509Z" fill="#FFCB47"/>
</svg>
